<svg width="539" height="723" xmlns="http://www.w3.org/2000/svg" xmlns:xlink="http://www.w3.org/1999/xlink" overflow="hidden"><defs><clipPath id="clip0"><rect x="-1" y="-2" width="539" height="723"/></clipPath></defs><g clip-path="url(#clip0)" transform="translate(1 2)"><path d="M158 10.0002C158 3.92497 162.925-1 169-1L358-1C364.075-1 369 3.92497 369 10.0002L369 53.9998C369 60.075 364.075 65 358 65L169 65C162.925 65 158 60.075 158 53.9998Z" fill="#9C27B0" fill-rule="evenodd"/><text fill="#FFFFFF" font-family="DengXian,DengXian_MSFontService,sans-serif" font-weight="400" font-size="24" transform="translate(172.535 40)">Activity/Fragment</text><path d="M90 145C90 135.059 98.0591 127 108 127L419 127C428.941 127 437 135.059 437 145L437 217C437 226.941 428.941 235 419 235L108 235C98.0591 235 90 226.941 90 217Z" fill="#4CAF50" fill-rule="evenodd"/><path d="M158 312C158 305.925 162.925 301 169 301L358 301C364.075 301 369 305.925 369 312L369 356C369 362.075 364.075 367 358 367L169 367C162.925 367 158 362.075 158 356Z" fill="#FF9800" fill-rule="evenodd"/><text fill="#FFFFFF" font-family="DengXian,DengXian_MSFontService,sans-serif" font-weight="400" font-size="24" transform="translate(208.709 341)">Repository<tspan font-size="24" x="-105" y="-155">ViewModel</tspan></text><path d="M249.5 148.167C249.5 144.485 252.485 141.5 256.167 141.5L381.833 141.5C385.515 141.5 388.5 144.485 388.5 148.167L388.5 174.833C388.5 178.515 385.515 181.5 381.833 181.5L256.167 181.5C252.485 181.5 249.5 178.515 249.5 174.833Z" stroke="#787878" stroke-width="1.33333" stroke-miterlimit="8" fill="#A5A5A5" fill-rule="evenodd"/><path d="M262.5 161.167C262.5 157.485 265.485 154.5 269.167 154.5L394.833 154.5C398.515 154.5 401.5 157.485 401.5 161.167L401.5 187.833C401.5 191.515 398.515 194.5 394.833 194.5L269.167 194.5C265.485 194.5 262.5 191.515 262.5 187.833Z" stroke="#787878" stroke-width="1.33333" stroke-miterlimit="8" fill="#A5A5A5" fill-rule="evenodd"/><path d="M273.5 175.167C273.5 171.485 276.485 168.5 280.167 168.5L406.833 168.5C410.515 168.5 413.5 171.485 413.5 175.167L413.5 201.833C413.5 205.515 410.515 208.5 406.833 208.5L280.167 208.5C276.485 208.5 273.5 205.515 273.5 201.833Z" stroke="#787878" stroke-width="1.33333" stroke-miterlimit="8" fill="#A5A5A5" fill-rule="evenodd"/><text fill="#FFFFFF" font-family="DengXian,DengXian_MSFontService,sans-serif" font-weight="400" font-size="24" transform="translate(298.907 196)">LiveData</text><path d="M325.583 645.923C322.93 633.001 336.591 621.1 356.095 619.343 363.999 618.63 372.034 619.695 378.916 622.366 386.208 613.259 403.249 609.798 416.977 614.636 419.377 615.481 421.581 616.554 423.518 617.819 429.197 610.269 443.031 607.202 454.416 610.968 457.567 612.01 460.316 613.518 462.452 615.374 471.606 608.235 487.781 607.353 498.581 613.405 503.12 615.948 506.179 619.456 507.234 623.327 522.233 626.039 531.081 636.31 526.997 646.268 526.654 647.105 526.223 647.925 525.708 648.723 537.737 659.099 534.792 673.972 519.131 681.941 514.256 684.422 508.497 686.029 502.412 686.605 502.277 697.768 488.498 706.746 471.636 706.656 466.002 706.626 460.491 705.565 455.712 703.59 450.009 716.105 430.116 723.179 411.279 719.39 403.385 717.802 396.564 714.443 391.98 709.887 372.694 717.595 347.661 713.449 336.068 700.626 335.922 700.464 335.778 700.302 335.637 700.138 323.015 701.117 311.582 695.149 310.101 686.808 309.311 682.363 311.526 677.913 316.155 674.645 305.226 670.382 301.555 661.024 307.955 653.744 311.647 649.544 318.123 646.768 325.391 646.269Z" fill="#006064" fill-rule="evenodd"/><text fill="#FFFFFF" font-family="DengXian,DengXian_MSFontService,sans-serif" font-weight="400" font-size="24" transform="translate(350.434 669)">WebService</text><path d="M51.5001 628.625C51.5001 635.874 79.4823 641.75 114 641.75 148.518 641.75 176.5 635.874 176.5 628.625L176.5 707.375C176.5 714.624 148.518 720.5 114 720.5 79.4823 720.5 51.5001 714.624 51.5001 707.375Z" fill="#01579B" fill-rule="evenodd"/><path d="M51.5001 628.625C51.5001 621.376 79.4823 615.5 114 615.5 148.518 615.5 176.5 621.376 176.5 628.625 176.5 635.874 148.518 641.75 114 641.75 79.4823 641.75 51.5001 635.874 51.5001 628.625Z" fill="#679AC3" fill-rule="evenodd"/><path d="M176.5 628.625C176.5 635.874 148.518 641.75 114 641.75 79.4823 641.75 51.5001 635.874 51.5001 628.625 51.5001 621.376 79.4823 615.5 114 615.5 148.518 615.5 176.5 621.376 176.5 628.625L176.5 707.375C176.5 714.624 148.518 720.5 114 720.5 79.4823 720.5 51.5001 714.624 51.5001 707.375L51.5001 628.625" stroke="#2F528F" stroke-width="1.33333" stroke-miterlimit="8" fill="none" fill-rule="evenodd"/><text fill="#FFFFFF" font-family="DengXian,DengXian_MSFontService,sans-serif" font-weight="400" font-size="24" transform="translate(79.6439 682)">SQLite</text><path d="M1-1.39484e-06 1.0001 68.6013-0.999904 68.6013-1 1.39484e-06ZM4.00009 67.2679 0.000104987 75.2679-3.99991 67.2679Z" fill="#A5A5A5" transform="matrix(-1 0 0 1 113 540)"/><path d="M0.999999-0.00123342 1.06852 55.5536-0.931477 55.5561-0.999999 0.00123342ZM4.06687 54.2166 0.0767454 62.2215-3.93312 54.2265Z" fill="#A5A5A5" transform="matrix(-1 0 0 1 264.077 65)"/><path d="M265 235 265 293.486 263 293.486 263 235ZM268 292.153 264 300.153 260 292.153Z" fill="#A5A5A5"/><path d="M369 333 415.162 333 415.162 425.369 413.162 425.369 413.162 334 414.162 335 369 335ZM418.162 424.035 414.162 432.035 410.162 424.035Z" fill="#A5A5A5"/><path d="M0-1 45.6546-1 45.6546 91.5571 43.6546 91.5571 43.6546 0 44.6546 1 0 1ZM48.6546 90.2237 44.6546 98.2237 40.6546 90.2237Z" fill="#A5A5A5" transform="matrix(-1 1.22465e-16 1.22465e-16 1 157.655 334)"/><path d="M1-1.39135e-06 1.0001 68.7899-0.999904 68.7899-1 1.39135e-06ZM4.00009 67.4566 0.000104987 75.4566-3.99991 67.4566Z" fill="#A5A5A5" transform="matrix(-1 0 0 1 419 540)"/><path d="M301 450C301 440.059 309.059 432 319 432L510 432C519.941 432 528 440.059 528 450L528 522C528 531.941 519.941 540 510 540L319 540C309.059 540 301 531.941 301 522Z" fill="#009688" fill-rule="evenodd"/><text fill="#FFFFFF" font-family="DengXian,DengXian_MSFontService,sans-serif" font-weight="400" font-size="24" transform="translate(309.916 473)">Remote Data Source</text><path d="M361 505.834C361 502.059 364.059 499 367.834 499L470.166 499C473.941 499 477 502.059 477 505.834L477 533.167C477 536.941 473.941 540 470.166 540L367.834 540C364.059 540 361 536.941 361 533.167Z" fill="#A5A5A5" fill-rule="evenodd"/><text fill="#FFFFFF" font-family="DengXian,DengXian_MSFontService,sans-serif" font-weight="400" font-size="24" transform="translate(380.981 527)">Retrofit</text><path d="M0 450C-3.61252e-15 440.059 8.05904 432 18.0004 432L209 432C218.941 432 227 440.059 227 450L227 522C227 531.941 218.941 540 209 540L18.0004 540C8.05904 540 0 531.941 0 522Z" fill="#03A9F4" fill-rule="evenodd"/><path d="M55 505.834C55 502.059 58.0595 499 61.8335 499L164.166 499C167.941 499 171 502.059 171 505.834L171 533.167C171 536.941 167.941 540 164.166 540L61.8335 540C58.0595 540 55 536.941 55 533.167Z" fill="#A5A5A5" fill-rule="evenodd"/><text fill="#FFFFFF" font-family="DengXian,DengXian_MSFontService,sans-serif" font-weight="400" font-size="24" transform="translate(82.3107 527)">Room<tspan font-size="24" x="-4.14603" y="-54">Model</tspan></text></g></svg>